Coordinates
version=1
nRows=4
nColumns=63
inDegrees=yes

Units are S.I. units (second, meters, Newtons, ...)
If the header above contains a line with 'inDegrees', this indicates whether rotational values are in degrees (yes) or radians (no).

endheader
time	pelvis_tilt	pelvis_list	pelvis_rotation	pelvis_tx	pelvis_ty	pelvis_tz	hip_flexion_r	hip_adduction_r	hip_rotation_r	knee_angle_r	knee_angle_r_beta	ankle_angle_r	subtalar_angle_r	mtp_angle_r	hip_flexion_l	hip_adduction_l	hip_rotation_l	knee_angle_l	knee_angle_l_beta	ankle_angle_l	subtalar_angle_l	mtp_angle_l	L5_S1_Flex_Ext	L5_S1_Lat_Bending	L5_S1_axial_rotation	L4_L5_Flex_Ext	L4_L5_Lat_Bending	L4_L5_axial_rotation	L3_L4_Flex_Ext	L3_L4_Lat_Bending	L3_L4_axial_rotation	L2_L3_Flex_Ext	L2_L3_Lat_Bending	L2_L3_axial_rotation	L1_L2_Flex_Ext	L1_L2_Lat_Bending	L1_L2_axial_rotation	L1_T12_Flex_Ext	L1_T12_Lat_Bending	L1_T12_axial_rotation	Abs_r3	Abs_r2	Abs_r1	Abs_t1	Abs_t2	neck_flexion	neck_bending	neck_rotation	arm_flex_r	arm_add_r	arm_rot_r	elbow_flex_r	pro_sup_r	wrist_flex_r	wrist_dev_r	arm_flex_l	arm_add_l	arm_rot_l	elbow_flex_l	pro_sup_l	wrist_flex_l	wrist_dev_l
      0.00000000	      3.91197285	     -3.80888632	    103.97636718	      0.00036570	      1.06345656	      0.61591343	     -5.55891699	      2.17362523	    -13.16235793	      2.85730893	      0.04986945	     26.29474383	     13.80609399	      0.00000000	     -2.10510144	     -0.65532099	      9.79783888	      5.75291272	      0.10040727	     27.87331910	     -5.42302178	      0.00000000	      0.03323895	     -0.05781541	     -0.93411363	      0.06172805	     -0.07689450	     -0.99249573	      0.05460826	     -0.14057239	     -0.99249573	      0.03798879	     -0.14057239	     -0.81734943	      0.03086568	     -0.11789719	     -0.75896733	      0.01899273	     -0.08955607	     -0.70058522	      0.23742246	     -0.65401950	     -5.19525979	      0.00000000	      0.00000000	     20.95485699	      9.89758009	     -6.54650518	     21.06524463	    -10.98389302	     67.27603981	     44.13909271	      2.82805800	     -6.96896507	     18.32604143	     16.74285842	     -8.42524572	     51.01047730	     46.33816504	     86.75378311	     -6.81197327	     -8.79642114
      0.01666667	      3.27513009	     -4.56934987	    102.32059671	      0.00210615	      1.06289965	      0.61994050	     -4.34218814	      1.12221101	     -8.87379537	      3.06736486	      0.05353562	     26.46580157	     10.17263747	      0.00000000	     -1.19075702	      0.42702918	      8.44479084	      5.88218787	      0.10266355	     27.59071518	     -6.33722872	      0.00000000	      0.04504630	     -0.11840453	     -0.62534442	      0.08365549	     -0.15747803	     -0.66442845	      0.07400657	     -0.28788878	     -0.66442845	      0.05148342	     -0.28788878	     -0.54717637	      0.04183000	     -0.24145052	     -0.50809234	      0.02573946	     -0.18340862	     -0.46900832	      0.32176124	     -1.33941575	     -3.47797807	      0.00000000	      0.00000000	     21.76483591	      9.63284628	     -6.24833963	     16.72146541	     -7.35087053	     54.32377596	     40.35447517	      4.95673437	    -11.45012944	     19.99597557	     18.48430849	     -7.09398320	     55.61655654	     41.77975723	     85.56548505	     -4.94173409	     -6.98003635
      0.03333333	      2.72242875	     -5.22801922	    100.95920898	      0.00368340	      1.06190822	      0.62319408	     -3.58355177	      0.52035707	      1.75291008	      2.49657971	      0.04357354	     24.63411935	     -2.72122625	      0.00000000	     -0.33277786	      1.25239807	      6.38941598	      6.05546137	      0.10568774	     27.92788214	     -5.55060480	      0.00000000	      0.05721050	     -0.16631646	     -0.38652802	      0.10624562	     -0.22120089	     -0.41068602	      0.09399113	     -0.40438184	     -0.41068602	      0.06538588	     -0.40438184	     -0.33821201	      0.05312567	     -0.33915252	     -0.31405401	      0.03269008	     -0.25762420	     -0.28989601	      0.40864888	     -1.88140505	     -2.14975287	      0.00000000	      0.00000000	     22.59156430	      9.59167371	     -5.24564274	     14.54198376	     -4.77111496	     47.68652897	     37.25676736	      8.97715694	    -11.53960285	     19.70117528	     19.46685721	     -6.08162332	     59.87401922	     37.97196212	     82.08606969	     -2.66619136	     -6.20872925
      0.05000000	      2.19993985	     -5.83111797	     99.64299469	      0.00525329	      1.06099660	      0.62663821	     -2.49996828	     -0.21871985	      5.26771235	      2.70520883	      0.04721480	     24.49534204	     -6.02271505	      0.00000000	      0.52071341	      1.99325108	      4.67409365	      6.25963318	      0.10925121	     28.27412621	     -5.02733706	      0.00000000	      0.05767627	     -0.21451107	     -0.13144129	      0.10711061	     -0.28529972	     -0.13965637	      0.09475635	     -0.52156221	     -0.13965637	      0.06591821	     -0.52156221	     -0.11501113	      0.05355819	     -0.43743097	     -0.10679605	      0.03295622	     -0.33227764	     -0.09858097	      0.41197586	     -2.42659210	     -0.73103703	      0.00000000	      0.00000000	     23.48696728	      9.39872947	     -4.68830947	     13.65734999	     -3.21791257	     45.60608870	     34.54276446	     11.33247120	    -10.02603165	     19.03996053	     20.25656404	     -5.20362391	     64.58158078	     34.50210948	     76.07960483	     -0.02793069	     -5.99828077
